<svg xmlns="http://www.w3.org/2000/svg" xmlns:xlink="http://www.w3.org/1999/xlink" width="2426" zoomAndPan="magnify" viewBox="22 391 2426 1658" height="1658" preserveAspectRatio="xMidYMid meet" version="1.0"><defs><g/></defs><g transform="matrix(1, 0, 0, 1, 279, 241)"><g><g fill="#3b6403" fill-opacity="1"><g transform="translate(2.43454, 2009.000111)"><g><path d="M 213.21875 0 L 213.21875 -995.765625 L 59.703125 -995.765625 L 59.703125 -1110.90625 L 213.21875 -1110.90625 L 213.21875 -1140.75 C 213.21875 -1231.726562 226.367188 -1309.910156 252.671875 -1375.296875 C 278.972656 -1440.691406 316.644531 -1490.800781 365.6875 -1525.625 C 414.726562 -1560.445312 472.648438 -1577.859375 539.453125 -1577.859375 C 583.523438 -1577.859375 626.171875 -1571.460938 667.390625 -1558.671875 C 708.617188 -1545.878906 744.15625 -1528.820312 774 -1507.5 L 729.234375 -1403.015625 C 710.753906 -1418.648438 686.585938 -1430.734375 656.734375 -1439.265625 C 626.878906 -1447.796875 597.023438 -1452.0625 567.171875 -1452.0625 C 500.367188 -1452.0625 448.84375 -1425.765625 412.59375 -1373.171875 C 376.34375 -1320.578125 358.21875 -1244.523438 358.21875 -1145.015625 L 358.21875 -1110.90625 L 665.265625 -1110.90625 L 665.265625 -995.765625 L 358.21875 -995.765625 L 358.21875 0 Z M 213.21875 0 "/></g></g></g><g fill="#0a714e" fill-opacity="1"><g transform="translate(706.080317, 2009.000111)"><g><path d="M 1558.671875 -1110.90625 L 1701.53125 -1110.90625 L 1223.90625 0 L 1098.109375 0 L 865.6875 -552.25 L 635.40625 0 L 509.609375 0 L 31.984375 -1110.90625 L 172.71875 -1110.90625 L 577.84375 -149.25 L 782.53125 -650.34375 L 594.890625 -1108.765625 L 724.96875 -1108.765625 L 865.6875 -748.421875 L 1008.546875 -1108.765625 L 1136.484375 -1108.765625 L 950.984375 -650.34375 L 1155.671875 -149.25 Z M 1558.671875 -1110.90625 "/></g></g></g></g></g></svg>