<svg xmlns="http://www.w3.org/2000/svg" xmlns:xlink="http://www.w3.org/1999/xlink" width="2812" zoomAndPan="magnify" viewBox="0 80 2812 520" height="520" preserveAspectRatio="xMidYMid meet" version="1.0"><defs><g/></defs><g transform="matrix(1, 0, 0, 1, 106, 1155)"><g><g fill="#3b6403" fill-opacity="1"><g transform="translate(0.793541, 551.607281)"><g><path d="M 43.484375 0 L 43.484375 -417.265625 L 323.8125 -417.265625 L 323.8125 -346.140625 L 124.59375 -346.140625 L 124.59375 -238.59375 L 290.3125 -238.59375 L 290.3125 -172.78125 L 124.59375 -172.78125 L 124.59375 0 Z M 43.484375 0 "/></g></g></g><g fill="#3b6403" fill-opacity="1"><g transform="translate(349.876584, 551.607281)"><g><path d="M 35.84375 0 L 35.84375 -307.953125 L 114.59375 -307.953125 L 114.59375 0 Z M 35.84375 -350.84375 L 35.84375 -429.015625 L 114.59375 -429.015625 L 114.59375 -350.84375 Z M 35.84375 -350.84375 "/></g></g></g><g fill="#3b6403" fill-opacity="1"><g transform="translate(511.489182, 551.607281)"><g><path d="M 178.65625 5.875 C 153.96875 5.875 131.632812 1.664062 111.65625 -6.75 C 91.675781 -15.175781 74.632812 -26.734375 60.53125 -41.421875 C 46.425781 -56.117188 35.550781 -72.96875 27.90625 -91.96875 C 20.269531 -110.96875 16.453125 -131.050781 16.453125 -152.21875 C 16.453125 -181.59375 23.015625 -208.425781 36.140625 -232.71875 C 49.265625 -257.007812 68.070312 -276.5 92.5625 -291.1875 C 117.050781 -305.882812 145.945312 -313.234375 179.25 -313.234375 C 212.9375 -313.234375 241.726562 -305.882812 265.625 -291.1875 C 289.53125 -276.5 307.847656 -257.109375 320.578125 -233.015625 C 333.316406 -208.921875 339.6875 -182.96875 339.6875 -155.15625 C 339.6875 -150.445312 339.488281 -145.644531 339.09375 -140.75 C 338.707031 -135.851562 338.316406 -131.835938 337.921875 -128.703125 L 99.90625 -128.703125 C 101.46875 -113.035156 106.066406 -99.320312 113.703125 -87.5625 C 121.347656 -75.8125 131.144531 -66.898438 143.09375 -60.828125 C 155.050781 -54.753906 167.882812 -51.71875 181.59375 -51.71875 C 197.269531 -51.71875 212.0625 -55.535156 225.96875 -63.171875 C 239.875 -70.816406 249.375 -80.90625 254.46875 -93.4375 L 322.046875 -74.640625 C 314.609375 -58.960938 303.929688 -45.050781 290.015625 -32.90625 C 276.109375 -20.757812 259.753906 -11.257812 240.953125 -4.40625 C 222.148438 2.445312 201.382812 5.875 178.65625 5.875 Z M 98.140625 -178.65625 L 259.171875 -178.65625 C 257.597656 -194.332031 253.1875 -207.945312 245.9375 -219.5 C 238.695312 -231.0625 229.195312 -240.070312 217.4375 -246.53125 C 205.6875 -253 192.5625 -256.234375 178.0625 -256.234375 C 163.957031 -256.234375 151.125 -253 139.5625 -246.53125 C 128.007812 -240.070312 118.609375 -231.0625 111.359375 -219.5 C 104.117188 -207.945312 99.710938 -194.332031 98.140625 -178.65625 Z M 98.140625 -178.65625 "/></g></g></g><g fill="#3b6403" fill-opacity="1"><g transform="translate(875.264355, 551.607281)"><g><path d="M 35.265625 -429.015625 L 114.015625 -429.015625 L 114.015625 -98.734375 C 114.015625 -84.628906 116.363281 -75.125 121.0625 -70.21875 C 125.757812 -65.320312 132.222656 -62.875 140.453125 -62.875 C 146.722656 -62.875 153.1875 -63.65625 159.84375 -65.21875 C 166.507812 -66.789062 172.390625 -68.753906 177.484375 -71.109375 L 188.0625 -11.171875 C 177.476562 -6.078125 165.132812 -2.160156 151.03125 0.578125 C 136.925781 3.328125 124.195312 4.703125 112.84375 4.703125 C 88.15625 4.703125 69.050781 -1.859375 55.53125 -14.984375 C 42.019531 -28.109375 35.265625 -46.816406 35.265625 -71.109375 Z M 35.265625 -429.015625 "/></g></g></g><g fill="#3b6403" fill-opacity="1"><g transform="translate(1073.313177, 551.607281)"><g><path d="M 17.046875 -153.96875 C 17.046875 -183.75 22.921875 -210.6875 34.671875 -234.78125 C 46.421875 -258.875 62.675781 -277.972656 83.4375 -292.078125 C 104.207031 -306.179688 127.914062 -313.234375 154.5625 -313.234375 C 177.28125 -313.234375 197.75 -307.648438 215.96875 -296.484375 C 234.1875 -285.316406 248.390625 -271.113281 258.578125 -253.875 L 258.578125 -429.015625 L 337.328125 -429.015625 L 337.328125 -88.15625 C 337.328125 -79.925781 338.695312 -74.046875 341.4375 -70.515625 C 344.1875 -66.992188 348.890625 -64.84375 355.546875 -64.0625 L 355.546875 0 C 341.835938 2.738281 330.671875 4.109375 322.046875 4.109375 C 307.941406 4.109375 296.285156 0.582031 287.078125 -6.46875 C 277.878906 -13.519531 272.691406 -22.722656 271.515625 -34.078125 L 270.34375 -53.484375 C 258.976562 -34.285156 243.597656 -19.59375 224.203125 -9.40625 C 204.804688 0.78125 184.53125 5.875 163.375 5.875 C 142.21875 5.875 122.722656 1.757812 104.890625 -6.46875 C 87.066406 -14.695312 71.59375 -26.054688 58.46875 -40.546875 C 45.34375 -55.046875 35.15625 -71.988281 27.90625 -91.375 C 20.664062 -110.769531 17.046875 -131.632812 17.046875 -153.96875 Z M 258.578125 -112.84375 L 258.578125 -186.296875 C 254.660156 -197.660156 248.390625 -207.847656 239.765625 -216.859375 C 231.148438 -225.867188 221.550781 -233.015625 210.96875 -238.296875 C 200.394531 -243.585938 189.820312 -246.234375 179.25 -246.234375 C 167.101562 -246.234375 156.128906 -243.6875 146.328125 -238.59375 C 136.535156 -233.507812 128.015625 -226.65625 120.765625 -218.03125 C 113.515625 -209.414062 108.03125 -199.425781 104.3125 -188.0625 C 100.59375 -176.695312 98.734375 -164.75 98.734375 -152.21875 C 98.734375 -139.675781 100.789062 -127.820312 104.90625 -116.65625 C 109.019531 -105.488281 114.992188 -95.789062 122.828125 -87.5625 C 130.660156 -79.332031 139.769531 -72.867188 150.15625 -68.171875 C 160.539062 -63.472656 171.804688 -61.125 183.953125 -61.125 C 191.390625 -61.125 198.925781 -62.394531 206.5625 -64.9375 C 214.207031 -67.488281 221.457031 -71.015625 228.3125 -75.515625 C 235.164062 -80.023438 241.238281 -85.507812 246.53125 -91.96875 C 251.820312 -98.4375 255.835938 -105.394531 258.578125 -112.84375 Z M 258.578125 -112.84375 "/></g></g></g><g fill="#0a714e" fill-opacity="1"><g transform="translate(1464.261883, 551.607281)"><g><path d="M 417.84375 -307.953125 L 492.484375 -307.953125 L 363.78125 0 L 297.953125 0 L 246.234375 -132.234375 L 195.703125 0 L 129.296875 0 L 1.171875 -307.953125 L 75.21875 -307.953125 L 166.90625 -75.21875 L 202.75 -175.71875 L 149.265625 -307.359375 L 214.5 -307.359375 L 246.234375 -213.328125 L 278.5625 -307.359375 L 343.796875 -307.359375 L 290.3125 -175.71875 L 326.75 -75.21875 Z M 417.84375 -307.953125 "/></g></g></g><g fill="#0a714e" fill-opacity="1"><g transform="translate(1969.080695, 551.607281)"><g><path d="M 35.84375 0 L 35.84375 -307.953125 L 114.59375 -307.953125 L 114.59375 0 Z M 35.84375 -350.84375 L 35.84375 -429.015625 L 114.59375 -429.015625 L 114.59375 -350.84375 Z M 35.84375 -350.84375 "/></g></g></g><g fill="#0a714e" fill-opacity="1"><g transform="translate(2130.693292, 551.607281)"><g><path d="M 149.265625 5.875 C 123.015625 5.875 97.941406 1.566406 74.046875 -7.046875 C 50.148438 -15.671875 29.582031 -28.40625 12.34375 -45.25 L 40.546875 -96.375 C 58.960938 -81.488281 77.082031 -70.519531 94.90625 -63.46875 C 112.738281 -56.414062 129.878906 -52.890625 146.328125 -52.890625 C 161.609375 -52.890625 173.851562 -55.628906 183.0625 -61.109375 C 192.269531 -66.597656 196.875 -74.828125 196.875 -85.796875 C 196.875 -93.242188 194.328125 -99.023438 189.234375 -103.140625 C 184.140625 -107.253906 176.789062 -110.878906 167.1875 -114.015625 C 157.59375 -117.148438 145.941406 -120.675781 132.234375 -124.59375 C 109.503906 -132.03125 90.5 -139.273438 75.21875 -146.328125 C 59.9375 -153.378906 48.476562 -162.289062 40.84375 -173.0625 C 33.207031 -183.84375 29.390625 -197.65625 29.390625 -214.5 C 29.390625 -234.875 34.578125 -252.40625 44.953125 -267.09375 C 55.335938 -281.789062 69.832031 -293.253906 88.4375 -301.484375 C 107.050781 -309.710938 128.894531 -313.828125 153.96875 -313.828125 C 175.914062 -313.828125 196.679688 -310.394531 216.265625 -303.53125 C 235.859375 -296.675781 253.6875 -285.613281 269.75 -270.34375 L 238.015625 -220.375 C 222.335938 -232.519531 207.445312 -241.429688 193.34375 -247.109375 C 179.238281 -252.796875 164.941406 -255.640625 150.453125 -255.640625 C 142.222656 -255.640625 134.484375 -254.660156 127.234375 -252.703125 C 119.984375 -250.742188 114.101562 -247.507812 109.59375 -243 C 105.09375 -238.5 102.84375 -232.132812 102.84375 -223.90625 C 102.84375 -216.46875 104.898438 -210.691406 109.015625 -206.578125 C 113.128906 -202.460938 119.394531 -198.835938 127.8125 -195.703125 C 136.238281 -192.566406 146.523438 -189.039062 158.671875 -185.125 C 183.359375 -178.070312 204.222656 -170.820312 221.265625 -163.375 C 238.304688 -155.9375 251.132812 -146.828125 259.75 -136.046875 C 268.375 -125.273438 272.6875 -110.484375 272.6875 -91.671875 C 272.6875 -61.117188 261.519531 -37.222656 239.1875 -19.984375 C 216.851562 -2.742188 186.878906 5.875 149.265625 5.875 Z M 149.265625 5.875 "/></g></g></g><g fill="#0a714e" fill-opacity="1"><g transform="translate(2432.761881, 551.607281)"><g><path d="M 178.65625 5.875 C 153.96875 5.875 131.632812 1.664062 111.65625 -6.75 C 91.675781 -15.175781 74.632812 -26.734375 60.53125 -41.421875 C 46.425781 -56.117188 35.550781 -72.96875 27.90625 -91.96875 C 20.269531 -110.96875 16.453125 -131.050781 16.453125 -152.21875 C 16.453125 -181.59375 23.015625 -208.425781 36.140625 -232.71875 C 49.265625 -257.007812 68.070312 -276.5 92.5625 -291.1875 C 117.050781 -305.882812 145.945312 -313.234375 179.25 -313.234375 C 212.9375 -313.234375 241.726562 -305.882812 265.625 -291.1875 C 289.53125 -276.5 307.847656 -257.109375 320.578125 -233.015625 C 333.316406 -208.921875 339.6875 -182.96875 339.6875 -155.15625 C 339.6875 -150.445312 339.488281 -145.644531 339.09375 -140.75 C 338.707031 -135.851562 338.316406 -131.835938 337.921875 -128.703125 L 99.90625 -128.703125 C 101.46875 -113.035156 106.066406 -99.320312 113.703125 -87.5625 C 121.347656 -75.8125 131.144531 -66.898438 143.09375 -60.828125 C 155.050781 -54.753906 167.882812 -51.71875 181.59375 -51.71875 C 197.269531 -51.71875 212.0625 -55.535156 225.96875 -63.171875 C 239.875 -70.816406 249.375 -80.90625 254.46875 -93.4375 L 322.046875 -74.640625 C 314.609375 -58.960938 303.929688 -45.050781 290.015625 -32.90625 C 276.109375 -20.757812 259.753906 -11.257812 240.953125 -4.40625 C 222.148438 2.445312 201.382812 5.875 178.65625 5.875 Z M 98.140625 -178.65625 L 259.171875 -178.65625 C 257.597656 -194.332031 253.1875 -207.945312 245.9375 -219.5 C 238.695312 -231.0625 229.195312 -240.070312 217.4375 -246.53125 C 205.6875 -253 192.5625 -256.234375 178.0625 -256.234375 C 163.957031 -256.234375 151.125 -253 139.5625 -246.53125 C 128.007812 -240.070312 118.609375 -231.0625 111.359375 -219.5 C 104.117188 -207.945312 99.710938 -194.332031 98.140625 -178.65625 Z M 98.140625 -178.65625 "/></g></g></g><g fill="#0a714e" fill-opacity="1"><g transform="translate(2796.591984, 551.607281)"><g/></g></g></g></g></svg>