<svg xmlns="http://www.w3.org/2000/svg" xmlns:xlink="http://www.w3.org/1999/xlink" width="4000" zoomAndPan="magnify" viewBox="0 0 3000 2999.999989" height="4000" preserveAspectRatio="xMidYMid meet" version="1.0"><defs><g/></defs><rect x="-300" width="3600" fill="#ffffff" y="-299.999999" height="3599.999987" fill-opacity="1"/><rect x="-300" width="3600" fill="#ffffff" y="-299.999999" height="3599.999987" fill-opacity="1"/><g fill="#000000" fill-opacity="1"><g transform="translate(281.404592, 2251.499998)"><g><path d="M 213.21875 0 L 213.21875 -995.765625 L 59.703125 -995.765625 L 59.703125 -1110.90625 L 213.21875 -1110.90625 L 213.21875 -1140.765625 C 213.21875 -1231.742188 226.367188 -1309.925781 252.671875 -1375.3125 C 278.972656 -1440.695312 316.644531 -1490.800781 365.6875 -1525.625 C 414.726562 -1560.457031 472.65625 -1577.875 539.46875 -1577.875 C 583.53125 -1577.875 626.171875 -1571.476562 667.390625 -1558.6875 C 708.617188 -1545.894531 744.160156 -1528.835938 774.015625 -1507.515625 L 729.234375 -1403.03125 C 710.753906 -1418.664062 686.585938 -1430.75 656.734375 -1439.28125 C 626.878906 -1447.8125 597.03125 -1452.078125 567.1875 -1452.078125 C 500.375 -1452.078125 448.84375 -1425.773438 412.59375 -1373.171875 C 376.34375 -1320.578125 358.21875 -1244.53125 358.21875 -1145.03125 L 358.21875 -1110.90625 L 665.265625 -1110.90625 L 665.265625 -995.765625 L 358.21875 -995.765625 L 358.21875 0 Z M 213.21875 0 "/></g></g></g><g fill="#000000" fill-opacity="1"><g transform="translate(985.05333, 2251.499998)"><g><path d="M 1558.6875 -1110.90625 L 1701.546875 -1110.90625 L 1223.921875 0 L 1098.109375 0 L 865.703125 -552.25 L 635.421875 0 L 509.609375 0 L 31.984375 -1110.90625 L 172.71875 -1110.90625 L 577.84375 -149.265625 L 782.546875 -650.34375 L 594.90625 -1108.78125 L 724.96875 -1108.78125 L 865.703125 -748.421875 L 1008.5625 -1108.78125 L 1136.5 -1108.78125 L 950.984375 -650.34375 L 1155.6875 -149.265625 Z M 1558.6875 -1110.90625 "/></g></g></g></svg>