<svg xmlns="http://www.w3.org/2000/svg" xmlns:xlink="http://www.w3.org/1999/xlink" width="4000" zoomAndPan="magnify" viewBox="0 0 3000 2999.999989" height="4000" preserveAspectRatio="xMidYMid meet" version="1.0"><defs><g/></defs><rect x="-300" width="3600" fill="#ffffff" y="-299.999999" height="3599.999987" fill-opacity="1"/><g fill="#ffffff" fill-opacity="1"><g transform="translate(105.100724, 1707.000023)"><g><path d="M 43.515625 0 L 43.515625 -417.484375 L 323.984375 -417.484375 L 323.984375 -346.328125 L 124.65625 -346.328125 L 124.65625 -238.734375 L 290.46875 -238.734375 L 290.46875 -172.875 L 124.65625 -172.875 L 124.65625 0 Z M 43.515625 0 "/></g></g></g><g fill="#ffffff" fill-opacity="1"><g transform="translate(454.372078, 1707.000023)"><g><path d="M 35.875 0 L 35.875 -308.109375 L 114.65625 -308.109375 L 114.65625 0 Z M 35.875 -351.03125 L 35.875 -429.234375 L 114.65625 -429.234375 L 114.65625 -351.03125 Z M 35.875 -351.03125 "/></g></g></g><g fill="#ffffff" fill-opacity="1"><g transform="translate(616.071846, 1707.000023)"><g><path d="M 178.75 5.875 C 154.050781 5.875 131.707031 1.660156 111.71875 -6.765625 C 91.726562 -15.191406 74.675781 -26.753906 60.5625 -41.453125 C 46.445312 -56.148438 35.566406 -73.003906 27.921875 -92.015625 C 20.285156 -111.035156 16.46875 -131.128906 16.46875 -152.296875 C 16.46875 -181.691406 23.03125 -208.539062 36.15625 -232.84375 C 49.289062 -257.144531 68.109375 -276.644531 92.609375 -291.34375 C 117.109375 -306.050781 146.019531 -313.40625 179.34375 -313.40625 C 213.050781 -313.40625 241.859375 -306.050781 265.765625 -291.34375 C 289.679688 -276.644531 308.007812 -257.242188 320.75 -233.140625 C 333.488281 -209.035156 339.859375 -183.066406 339.859375 -155.234375 C 339.859375 -150.523438 339.660156 -145.71875 339.265625 -140.8125 C 338.878906 -135.914062 338.488281 -131.898438 338.09375 -128.765625 L 99.953125 -128.765625 C 101.523438 -113.085938 106.132812 -99.367188 113.78125 -87.609375 C 121.425781 -75.847656 131.222656 -66.929688 143.171875 -60.859375 C 155.128906 -54.785156 167.96875 -51.75 181.6875 -51.75 C 197.375 -51.75 212.171875 -55.566406 226.078125 -63.203125 C 239.992188 -70.847656 249.503906 -80.941406 254.609375 -93.484375 L 322.21875 -74.671875 C 314.769531 -58.992188 304.085938 -45.078125 290.171875 -32.921875 C 276.253906 -20.773438 259.890625 -11.269531 241.078125 -4.40625 C 222.265625 2.445312 201.488281 5.875 178.75 5.875 Z M 98.203125 -178.75 L 259.3125 -178.75 C 257.738281 -194.425781 253.328125 -208.046875 246.078125 -219.609375 C 238.828125 -231.179688 229.320312 -240.203125 217.5625 -246.671875 C 205.800781 -253.140625 192.664062 -256.375 178.15625 -256.375 C 164.050781 -256.375 151.210938 -253.140625 139.640625 -246.671875 C 128.078125 -240.203125 118.671875 -231.179688 111.421875 -219.609375 C 104.171875 -208.046875 99.765625 -194.425781 98.203125 -178.75 Z M 98.203125 -178.75 "/></g></g></g><g fill="#ffffff" fill-opacity="1"><g transform="translate(980.043252, 1707.000023)"><g><path d="M 35.28125 -429.234375 L 114.078125 -429.234375 L 114.078125 -98.78125 C 114.078125 -84.664062 116.425781 -75.160156 121.125 -70.265625 C 125.832031 -65.367188 132.300781 -62.921875 140.53125 -62.921875 C 146.800781 -62.921875 153.269531 -63.703125 159.9375 -65.265625 C 166.601562 -66.835938 172.484375 -68.796875 177.578125 -71.140625 L 188.15625 -11.171875 C 177.570312 -6.078125 165.222656 -2.160156 151.109375 0.578125 C 137.003906 3.328125 124.265625 4.703125 112.890625 4.703125 C 88.203125 4.703125 69.09375 -1.859375 55.5625 -14.984375 C 42.039062 -28.117188 35.28125 -46.835938 35.28125 -71.140625 Z M 35.28125 -429.234375 "/></g></g></g><g fill="#ffffff" fill-opacity="1"><g transform="translate(1178.198883, 1707.000023)"><g><path d="M 17.046875 -154.0625 C 17.046875 -183.851562 22.925781 -210.800781 34.6875 -234.90625 C 46.445312 -259.007812 62.710938 -278.117188 83.484375 -292.234375 C 104.265625 -306.347656 127.984375 -313.40625 154.640625 -313.40625 C 177.378906 -313.40625 197.863281 -307.816406 216.09375 -296.640625 C 234.320312 -285.472656 248.53125 -271.265625 258.71875 -254.015625 L 258.71875 -429.234375 L 337.515625 -429.234375 L 337.515625 -88.203125 C 337.515625 -79.972656 338.882812 -74.09375 341.625 -70.5625 C 344.375 -67.03125 349.078125 -64.875 355.734375 -64.09375 L 355.734375 0 C 342.015625 2.738281 330.84375 4.109375 322.21875 4.109375 C 308.113281 4.109375 296.453125 0.582031 287.234375 -6.46875 C 278.023438 -13.519531 272.832031 -22.734375 271.65625 -34.109375 L 270.484375 -53.515625 C 259.109375 -34.304688 243.71875 -19.601562 224.3125 -9.40625 C 204.914062 0.78125 184.632812 5.875 163.46875 5.875 C 142.300781 5.875 122.796875 1.757812 104.953125 -6.46875 C 87.117188 -14.695312 71.632812 -26.0625 58.5 -40.5625 C 45.375 -55.070312 35.179688 -72.03125 27.921875 -91.4375 C 20.671875 -110.84375 17.046875 -131.71875 17.046875 -154.0625 Z M 258.71875 -112.890625 L 258.71875 -186.390625 C 254.800781 -197.765625 248.53125 -207.957031 239.90625 -216.96875 C 231.28125 -225.988281 221.675781 -233.144531 211.09375 -238.4375 C 200.507812 -243.726562 189.925781 -246.375 179.34375 -246.375 C 167.1875 -246.375 156.207031 -243.820312 146.40625 -238.71875 C 136.613281 -233.625 128.085938 -226.765625 120.828125 -218.140625 C 113.578125 -209.523438 108.085938 -199.53125 104.359375 -188.15625 C 100.640625 -176.789062 98.78125 -164.835938 98.78125 -152.296875 C 98.78125 -139.742188 100.835938 -127.878906 104.953125 -116.703125 C 109.066406 -105.535156 115.046875 -95.835938 122.890625 -87.609375 C 130.734375 -79.378906 139.847656 -72.910156 150.234375 -68.203125 C 160.617188 -63.503906 171.890625 -61.15625 184.046875 -61.15625 C 191.492188 -61.15625 199.035156 -62.425781 206.671875 -64.96875 C 214.316406 -67.519531 221.570312 -71.046875 228.4375 -75.546875 C 235.300781 -80.054688 241.378906 -85.546875 246.671875 -92.015625 C 251.960938 -98.484375 255.976562 -105.441406 258.71875 -112.890625 Z M 258.71875 -112.890625 "/></g></g></g><g fill="#ffffff" fill-opacity="1"><g transform="translate(1569.218213, 1707.000023)"><g><path d="M 418.0625 -308.109375 L 492.75 -308.109375 L 363.96875 0 L 298.109375 0 L 246.375 -132.296875 L 195.796875 0 L 129.359375 0 L 1.171875 -308.109375 L 75.265625 -308.109375 L 166.984375 -75.265625 L 202.859375 -175.8125 L 149.359375 -307.53125 L 214.625 -307.53125 L 246.375 -213.4375 L 278.71875 -307.53125 L 343.984375 -307.53125 L 290.46875 -175.8125 L 326.921875 -75.265625 Z M 418.0625 -308.109375 "/></g></g></g><g fill="#ffffff" fill-opacity="1"><g transform="translate(2074.309312, 1707.000023)"><g><path d="M 35.875 0 L 35.875 -308.109375 L 114.65625 -308.109375 L 114.65625 0 Z M 35.875 -351.03125 L 35.875 -429.234375 L 114.65625 -429.234375 L 114.65625 -351.03125 Z M 35.875 -351.03125 "/></g></g></g><g fill="#ffffff" fill-opacity="1"><g transform="translate(2236.009012, 1707.000023)"><g><path d="M 149.359375 5.875 C 123.085938 5.875 97.992188 1.566406 74.078125 -7.046875 C 50.171875 -15.671875 29.59375 -28.414062 12.34375 -45.28125 L 40.578125 -96.4375 C 58.992188 -81.539062 77.117188 -70.5625 94.953125 -63.5 C 112.796875 -56.445312 129.945312 -52.921875 146.40625 -52.921875 C 161.695312 -52.921875 173.945312 -55.664062 183.15625 -61.15625 C 192.375 -66.644531 196.984375 -74.875 196.984375 -85.84375 C 196.984375 -93.289062 194.429688 -99.070312 189.328125 -103.1875 C 184.234375 -107.3125 176.882812 -110.941406 167.28125 -114.078125 C 157.675781 -117.210938 146.015625 -120.738281 132.296875 -124.65625 C 109.566406 -132.101562 90.554688 -139.351562 75.265625 -146.40625 C 59.972656 -153.46875 48.503906 -162.390625 40.859375 -173.171875 C 33.222656 -183.953125 29.40625 -197.769531 29.40625 -214.625 C 29.40625 -235.007812 34.597656 -252.550781 44.984375 -267.25 C 55.367188 -281.945312 69.867188 -293.410156 88.484375 -301.640625 C 107.109375 -309.867188 128.96875 -313.984375 154.0625 -313.984375 C 176.007812 -313.984375 196.78125 -310.550781 216.375 -303.6875 C 235.976562 -296.832031 253.816406 -285.765625 269.890625 -270.484375 L 238.140625 -220.5 C 222.460938 -232.65625 207.566406 -241.570312 193.453125 -247.25 C 179.335938 -252.9375 165.03125 -255.78125 150.53125 -255.78125 C 142.300781 -255.78125 134.554688 -254.800781 127.296875 -252.84375 C 120.046875 -250.882812 114.164062 -247.648438 109.65625 -243.140625 C 105.15625 -238.628906 102.90625 -232.257812 102.90625 -224.03125 C 102.90625 -216.582031 104.960938 -210.800781 109.078125 -206.6875 C 113.191406 -202.570312 119.460938 -198.941406 127.890625 -195.796875 C 136.316406 -192.660156 146.609375 -189.132812 158.765625 -185.21875 C 183.453125 -178.164062 204.320312 -170.914062 221.375 -163.46875 C 238.425781 -156.019531 251.265625 -146.90625 259.890625 -136.125 C 268.515625 -125.34375 272.828125 -110.546875 272.828125 -91.734375 C 272.828125 -61.148438 261.65625 -37.234375 239.3125 -19.984375 C 216.96875 -2.742188 186.984375 5.875 149.359375 5.875 Z M 149.359375 5.875 "/></g></g></g><g fill="#ffffff" fill-opacity="1"><g transform="translate(2538.240504, 1707.000023)"><g><path d="M 178.75 5.875 C 154.050781 5.875 131.707031 1.660156 111.71875 -6.765625 C 91.726562 -15.191406 74.675781 -26.753906 60.5625 -41.453125 C 46.445312 -56.148438 35.566406 -73.003906 27.921875 -92.015625 C 20.285156 -111.035156 16.46875 -131.128906 16.46875 -152.296875 C 16.46875 -181.691406 23.03125 -208.539062 36.15625 -232.84375 C 49.289062 -257.144531 68.109375 -276.644531 92.609375 -291.34375 C 117.109375 -306.050781 146.019531 -313.40625 179.34375 -313.40625 C 213.050781 -313.40625 241.859375 -306.050781 265.765625 -291.34375 C 289.679688 -276.644531 308.007812 -257.242188 320.75 -233.140625 C 333.488281 -209.035156 339.859375 -183.066406 339.859375 -155.234375 C 339.859375 -150.523438 339.660156 -145.71875 339.265625 -140.8125 C 338.878906 -135.914062 338.488281 -131.898438 338.09375 -128.765625 L 99.953125 -128.765625 C 101.523438 -113.085938 106.132812 -99.367188 113.78125 -87.609375 C 121.425781 -75.847656 131.222656 -66.929688 143.171875 -60.859375 C 155.128906 -54.785156 167.96875 -51.75 181.6875 -51.75 C 197.375 -51.75 212.171875 -55.566406 226.078125 -63.203125 C 239.992188 -70.847656 249.503906 -80.941406 254.609375 -93.484375 L 322.21875 -74.671875 C 314.769531 -58.992188 304.085938 -45.078125 290.171875 -32.921875 C 276.253906 -20.773438 259.890625 -11.269531 241.078125 -4.40625 C 222.265625 2.445312 201.488281 5.875 178.75 5.875 Z M 98.203125 -178.75 L 259.3125 -178.75 C 257.738281 -194.425781 253.328125 -208.046875 246.078125 -219.609375 C 238.828125 -231.179688 229.320312 -240.203125 217.5625 -246.671875 C 205.800781 -253.140625 192.664062 -256.375 178.15625 -256.375 C 164.050781 -256.375 151.210938 -253.140625 139.640625 -246.671875 C 128.078125 -240.203125 118.671875 -231.179688 111.421875 -219.609375 C 104.171875 -208.046875 99.765625 -194.425781 98.203125 -178.75 Z M 98.203125 -178.75 "/></g></g></g></svg>